<svg width="137" height="29" viewBox="0 0 137 29" fill="none" xmlns="http://www.w3.org/2000/svg">
<path fill-rule="evenodd" clip-rule="evenodd" d="M10.1388 2.58169C6.81804 3.10614 3.92848 4.95431 2.04861 7.75621C1.08616 9.19072 0.426313 10.8946 0.115112 12.7491C-0.0379409 13.6611 -0.0384357 15.3134 0.114024 16.3139C0.681517 20.0374 2.93937 23.2849 6.24723 25.1354C7.19246 25.6642 8.41634 26.119 9.54519 26.3611C10.1317 26.4868 10.2796 26.499 11.2271 26.5C12.3372 26.5011 12.5032 26.4793 13.3542 26.2212C15.1543 25.6751 16.7545 24.1831 17.4112 22.4383C18.0344 20.7825 17.8883 18.8329 17.0265 17.3065C16.2603 15.9495 15.3537 15.1261 11.8207 12.5782C9.63176 10.9996 8.98803 10.377 8.46387 9.3314C8.20605 8.81704 8.11814 8.43124 8.11552 7.80236C8.11275 7.14493 8.19631 6.79342 8.50464 6.16552C8.94267 5.27337 9.77022 4.58077 10.7647 4.27417C11.8123 3.9511 13.1292 4.03332 14.5711 4.51182C15.2281 4.72987 15.9901 5.09761 16.5836 5.48316C16.8483 5.65516 17 5.72744 17.0124 5.68752C17.0491 5.56904 17.2869 4.12859 17.2869 4.02471C17.2869 3.82001 15.6492 3.09852 14.5414 2.81517C13.5566 2.56328 13.2196 2.52307 11.9444 2.50506C10.9362 2.49081 10.6326 2.50372 10.1388 2.58169ZM18.1874 3.64915C17.9963 6.39891 17.065 8.84148 15.4489 10.8318C15.0091 11.3733 14.2347 12.1608 13.8551 12.4523C13.6779 12.5884 13.532 12.7108 13.5308 12.7244C13.5295 12.738 13.6563 12.8369 13.8124 12.9442C14.182 13.1983 15.1614 13.9724 15.7422 14.4694L16.2009 14.862L16.311 14.7269C16.5379 14.4488 17.1002 13.518 17.431 12.8728C18.3312 11.1169 18.8179 9.31938 18.9442 7.28295C19.0023 6.34682 18.8319 4.89242 18.5245 3.70015C18.2629 2.68572 18.2545 2.68448 18.1874 3.64915ZM6.98786 5.68761C6.8587 5.95291 6.69258 6.39253 6.61873 6.6646C6.50184 7.09527 6.48472 7.24886 6.4866 7.85183C6.48838 8.43663 6.50881 8.62016 6.61789 9.03168C6.8957 10.0794 7.3977 10.9073 8.30419 11.813C9.08865 12.5966 9.62033 13.0217 11.7946 14.6042C14.7943 16.7872 15.5825 17.6289 16.0331 19.1305C16.1506 19.5218 16.1671 19.6624 16.1701 20.293C16.1741 21.1413 16.0908 21.4995 15.7044 22.2964C15.5031 22.7113 14.941 23.5064 14.8885 23.4504C14.8801 23.4415 14.919 23.2672 14.975 23.0631C15.0566 22.7654 15.0768 22.5456 15.0768 21.9501C15.077 21.0547 14.9896 20.6685 14.6181 19.9219C14.0589 18.7985 13.372 18.1267 11.1034 16.4845C8.42717 14.5472 7.47126 13.6787 6.6498 12.4383C5.8963 11.3004 5.46643 9.77449 5.52154 8.43297C5.53074 8.20844 5.52357 8.02476 5.50556 8.02486C5.45307 8.02501 5.18911 8.75446 5.07573 9.21248C4.89958 9.92413 4.85669 10.3349 4.88469 11.0425C4.91749 11.8721 5.06426 12.4752 5.4091 13.1971C6.10184 14.6473 7.14239 15.6922 9.79253 17.5989C12.4008 19.4754 13.0648 20.1376 13.3871 21.1834C13.6069 21.8967 13.5003 22.8182 13.1264 23.4358C12.8762 23.8491 12.7133 24.0283 12.356 24.2833C11.5879 24.8314 10.6725 24.9348 9.61504 24.5929C9.10592 24.4284 8.64621 24.1285 8.18483 23.6602C7.69416 23.1621 7.50148 22.8564 7.27002 22.2088C6.72964 20.6969 7.06072 19.0263 8.1457 17.7906C8.23172 17.6926 8.27906 17.5993 8.25403 17.577C8.22955 17.5553 7.98691 17.3705 7.71478 17.1666C7.44266 16.9626 7.18949 16.7589 7.15224 16.714C7.05726 16.5996 7.0167 16.6101 6.84787 16.7931C6.35462 17.3276 5.71946 18.5609 5.54212 19.3283C5.28394 20.4457 5.3344 21.632 5.68156 22.6056C5.72277 22.7212 5.74459 22.8158 5.73004 22.8158C5.71545 22.8158 5.5105 22.652 5.27464 22.4518C4.2235 21.5597 3.16658 20.1787 2.61853 18.9813C1.86681 17.3391 1.51213 15.4404 1.65291 13.8127C1.85227 11.5075 2.63975 9.55386 4.09795 7.74681C4.51611 7.22858 5.43927 6.34835 5.94899 5.98175C6.32202 5.71354 7.13859 5.2054 7.19676 5.20535C7.21106 5.2053 7.11707 5.42232 6.98786 5.68761ZM19.7983 6.55013C19.811 6.88518 19.797 7.42507 19.7671 7.74992L19.7128 8.34052L20.0199 8.81348C20.3387 9.30435 20.7929 10.1889 21.0121 10.7457C21.4861 11.9503 21.7902 13.772 21.7178 14.9752C21.5556 17.6736 20.5947 19.8862 18.7073 21.9075C18.3946 22.2423 18.3248 22.3515 18.2054 22.6921C17.9116 23.531 17.4067 24.3186 16.6782 25.075L16.1861 25.5859L16.4273 25.4797C17.0692 25.1968 18.1241 24.5424 18.7912 24.0132C19.5959 23.3748 20.6891 22.185 21.2774 21.307C22.3229 19.7469 23.0385 17.8133 23.2729 15.9151C23.3536 15.2619 23.3402 13.7446 23.2476 13.0464C22.9873 11.0825 22.2541 9.13611 21.2072 7.63026C20.8869 7.16957 20.3027 6.456 20.0191 6.17913L19.7752 5.94104L19.7983 6.55013ZM12.3401 7.34884C11.7598 7.48403 11.288 7.8636 11.0187 8.41195C10.8944 8.66507 10.8808 8.74398 10.8808 9.21219C10.8808 9.6799 10.895 9.76227 11.023 10.0394C11.4972 11.0661 12.8233 11.4556 13.7672 10.8456C14.2933 10.5055 14.6025 9.98126 14.6504 9.34793C14.7461 8.08284 13.5674 7.06292 12.3401 7.34884Z" fill="white"/>
<path d="M36.576 19.825C36.8594 20.525 37.3927 21.0667 38.176 21.45C38.9594 21.8333 39.8677 22.025 40.901 22.025C41.9511 22.025 42.8844 21.7333 43.7011 21.15C44.5177 20.5667 44.926 19.725 44.926 18.625C44.926 17.775 44.6344 17.0667 44.051 16.5C43.4677 15.9333 42.7594 15.4833 41.926 15.15C41.1094 14.8 40.2844 14.4333 39.451 14.05C38.6344 13.6667 37.9344 13.1167 37.351 12.4C36.7677 11.6833 36.476 10.8 36.476 9.75C36.476 8.36667 36.9594 7.275 37.926 6.475C38.9094 5.65833 40.0927 5.25 41.476 5.25C42.8761 5.25 43.9844 5.55 44.8011 6.15C45.6177 6.73333 46.0261 7.475 46.0261 8.375C46.0261 8.94167 45.8427 9.40833 45.4761 9.775C45.1261 10.1417 44.7177 10.325 44.2511 10.325C43.7844 10.325 43.3844 10.1833 43.0511 9.9C42.7177 9.61667 42.551 9.24167 42.551 8.775C42.551 8.30833 42.6761 7.94167 42.9261 7.675C43.1927 7.40833 43.5094 7.275 43.876 7.275C44.4594 7.275 44.8511 7.53333 45.0511 8.05C45.1011 8.18333 45.1844 8.25 45.3011 8.25C45.4844 8.25 45.5594 8.16667 45.5261 8C45.4427 7.4 45.0677 6.875 44.401 6.425C43.751 5.95833 42.926 5.725 41.926 5.725C40.9427 5.725 40.1011 6 39.401 6.55C38.7177 7.08333 38.3761 7.78333 38.3761 8.65C38.3761 9.5 38.6677 10.2083 39.251 10.775C39.8344 11.3417 40.5344 11.8 41.3511 12.15C42.1844 12.4833 43.0094 12.8417 43.826 13.225C44.6594 13.6083 45.3677 14.1583 45.9511 14.875C46.5344 15.5917 46.8261 16.475 46.8261 17.525C46.8261 19.125 46.2427 20.3583 45.0761 21.225C43.9094 22.075 42.5844 22.5 41.101 22.5C39.6344 22.5 38.401 22.175 37.401 21.525C36.4177 20.8583 35.926 19.9583 35.926 18.825C35.926 18.2583 36.101 17.7917 36.451 17.425C36.8177 17.0583 37.2344 16.875 37.701 16.875C38.1677 16.875 38.5677 17.0167 38.901 17.3C39.2344 17.5833 39.401 17.9583 39.401 18.425C39.401 18.8917 39.2677 19.2583 39.001 19.525C38.751 19.7917 38.4427 19.925 38.076 19.925C37.476 19.925 37.076 19.6667 36.876 19.15C36.826 19.0167 36.7344 18.95 36.601 18.95C36.4677 18.95 36.401 19.0167 36.401 19.15C36.401 19.2833 36.4594 19.5083 36.576 19.825ZM67.1237 8.45C67.2404 8.1 67.2987 7.75 67.2987 7.4C67.2987 7.03333 67.157 6.71667 66.8737 6.45C66.607 6.16667 66.3654 6.025 66.1487 6.025C65.932 6.025 65.8237 6.09167 65.8237 6.225C65.8237 6.35833 65.8904 6.45 66.0237 6.5C66.5404 6.7 66.7987 7.08333 66.7987 7.65C66.7987 8.01667 66.6654 8.33333 66.3987 8.6C66.132 8.85 65.7654 8.975 65.2987 8.975C64.832 8.975 64.457 8.80833 64.1737 8.475C63.8904 8.14167 63.7487 7.74167 63.7487 7.275C63.7487 6.80833 63.932 6.4 64.2987 6.05C64.6654 5.68333 65.1487 5.5 65.7487 5.5C66.3487 5.5 66.832 5.7 67.1987 6.1C67.582 6.5 67.7737 6.925 67.7737 7.375C67.7737 7.80833 67.7154 8.18333 67.5987 8.5L63.3237 20.975C63.207 21.3417 63.107 21.6167 63.0237 21.8C62.7737 22.2667 62.382 22.5 61.8487 22.5H61.7737L58.2987 11.25L55.0487 20.975C54.932 21.3417 54.8237 21.6167 54.7237 21.8C54.4904 22.2667 54.107 22.5 53.5737 22.5H53.4987L48.4487 6.15H46.6737V5.75H53.1737V6.15H51.3237L55.0737 19.05H55.2237L58.0487 10.45L56.7237 6.15H54.9487V5.75H61.4487V6.15H59.5987L63.3487 19.05H63.4987L67.1237 8.45ZM72.1839 18.3C72.0005 18.8 71.9089 19.2917 71.9089 19.775C71.9089 20.2417 71.9922 20.6 72.1589 20.85C72.3422 21.1 72.6255 21.275 73.0089 21.375C73.5922 21.525 74.3672 21.6 75.3339 21.6H75.7589V22H68.3589V21.6C69.2422 21.6 69.9089 21.3583 70.3589 20.875C70.8255 20.375 71.2339 19.6 71.5839 18.55L75.6589 6.775C75.7755 6.40833 75.8839 6.13333 75.9839 5.95C76.2172 5.48333 76.6005 5.25 77.1339 5.25H77.2089L82.2589 21.6H84.0339V22H77.6339V21.6H79.4839L75.5839 8.85H75.4339L72.1839 18.3ZM71.5839 13.1C72.3005 13.1 73.0755 13.325 73.9089 13.775C74.7589 14.225 75.5005 14.8167 76.1339 15.55C77.4005 16.9667 78.3589 18.4583 79.0089 20.025L79.4089 19.925C78.5255 17.675 77.3505 15.9 75.8839 14.6C74.4339 13.3 72.9255 12.65 71.3589 12.65C70.4922 12.65 69.7755 12.8917 69.2089 13.375C68.6589 13.8583 68.3839 14.4083 68.3839 15.025C68.3839 15.625 68.5589 16.1083 68.9089 16.475C69.2755 16.8417 69.6839 17.025 70.1339 17.025C70.6005 17.025 71.0005 16.875 71.3339 16.575C71.6672 16.275 71.8339 15.8917 71.8339 15.425C71.8339 14.9583 71.7089 14.6 71.4589 14.35C71.2089 14.1 70.9005 13.975 70.5339 13.975C69.9505 13.975 69.5589 14.2333 69.3589 14.75C69.3089 14.8833 69.2255 14.95 69.1089 14.95C68.9422 14.95 68.8755 14.8667 68.9089 14.7C68.9755 14.2 69.2589 13.8083 69.7589 13.525C70.2589 13.2417 70.8672 13.1 71.5839 13.1ZM93.1524 21.6H95.2274V22H88.7274V21.6H90.5524V14.975L86.0774 6.15H84.2524V5.75H90.9524V6.15H88.8774L93.1524 14.725V21.6ZM95.9024 6.025C96.1191 6.025 96.3608 6.16667 96.6274 6.45C96.9108 6.71667 97.0524 7.04167 97.0524 7.425C97.0524 7.79167 97.0024 8.15 96.9024 8.5C96.8691 8.61667 96.8108 8.75 96.7274 8.9C96.6608 9.03333 96.6024 9.13333 96.5524 9.2C96.5191 9.26667 96.4608 9.35833 96.3774 9.475C96.2941 9.59167 96.2441 9.66667 96.2274 9.7L92.5024 14.875L92.7524 15.325L96.7274 9.775C97.2608 9.04167 97.5274 8.35 97.5274 7.7C97.5274 7.03333 97.3358 6.5 96.9524 6.1C96.5858 5.7 96.1024 5.5 95.5024 5.5C94.9024 5.5 94.4191 5.68333 94.0524 6.05C93.6858 6.4 93.5024 6.80833 93.5024 7.275C93.5024 7.74167 93.6441 8.14167 93.9274 8.475C94.2108 8.80833 94.5858 8.975 95.0524 8.975C95.5191 8.975 95.8858 8.85 96.1524 8.6C96.4191 8.33333 96.5524 8.01667 96.5524 7.65C96.5524 7.08333 96.2941 6.7 95.7774 6.5C95.6441 6.45 95.5774 6.35833 95.5774 6.225C95.5774 6.09167 95.6858 6.025 95.9024 6.025ZM102.384 18.3C102.201 18.8 102.109 19.2917 102.109 19.775C102.109 20.2417 102.192 20.6 102.359 20.85C102.542 21.1 102.826 21.275 103.209 21.375C103.792 21.525 104.567 21.6 105.534 21.6H105.959V22H98.5591V21.6C99.4424 21.6 100.109 21.3583 100.559 20.875C101.026 20.375 101.434 19.6 101.784 18.55L105.859 6.775C105.976 6.40833 106.084 6.13333 106.184 5.95C106.417 5.48333 106.801 5.25 107.334 5.25H107.409L112.459 21.6H114.234V22H107.834V21.6H109.684L105.784 8.85H105.634L102.384 18.3ZM101.784 13.1C102.501 13.1 103.276 13.325 104.109 13.775C104.959 14.225 105.701 14.8167 106.334 15.55C107.601 16.9667 108.559 18.4583 109.209 20.025L109.609 19.925C108.726 17.675 107.551 15.9 106.084 14.6C104.634 13.3 103.126 12.65 101.559 12.65C100.692 12.65 99.9757 12.8917 99.4091 13.375C98.8591 13.8583 98.5841 14.4083 98.5841 15.025C98.5841 15.625 98.7591 16.1083 99.1091 16.475C99.4757 16.8417 99.8841 17.025 100.334 17.025C100.801 17.025 101.201 16.875 101.534 16.575C101.867 16.275 102.034 15.8917 102.034 15.425C102.034 14.9583 101.909 14.6 101.659 14.35C101.409 14.1 101.101 13.975 100.734 13.975C100.151 13.975 99.7591 14.2333 99.5591 14.75C99.5091 14.8833 99.4257 14.95 99.3091 14.95C99.1424 14.95 99.0757 14.8667 99.1091 14.7C99.1757 14.2 99.4591 13.8083 99.9591 13.525C100.459 13.2417 101.067 13.1 101.784 13.1ZM134.503 5.75V6.15H132.428V21.6H134.503V22H128.003V21.6H129.828V7.3H129.653L123.303 18.075C123.253 18.125 123.153 18.2917 123.003 18.575C122.719 19.0917 122.578 19.525 122.578 19.875C122.578 20.2083 122.653 20.4917 122.803 20.725C122.969 20.9583 123.178 21.075 123.428 21.075C123.911 21.075 124.153 20.8167 124.153 20.3C124.153 19.9833 124.028 19.575 123.778 19.075L118.228 7.3H118.053V18.425C118.053 19.6417 118.278 20.475 118.728 20.925C119.194 21.375 120.036 21.6 121.253 21.6H121.428V22H114.278V21.6C115.494 21.6 116.344 21.375 116.828 20.925C117.311 20.4583 117.553 19.625 117.553 18.425V7.15C117.519 6.75 117.361 6.48333 117.078 6.35C116.811 6.2 116.428 6.125 115.928 6.125H114.803V5.75H120.478L125.453 16.6C126.219 18.1333 126.603 19.2167 126.603 19.85C126.603 20.4667 126.386 20.95 125.953 21.3C125.536 21.65 125.011 21.825 124.378 21.825C123.761 21.825 123.228 21.6583 122.778 21.325C122.344 20.9917 122.128 20.475 122.128 19.775C122.128 19.525 122.153 19.3417 122.203 19.225C122.253 19.0917 122.286 19 122.303 18.95C122.319 18.9 122.353 18.825 122.403 18.725L122.528 18.5C122.611 18.3167 122.686 18.175 122.753 18.075C122.953 17.775 123.086 17.5583 123.153 17.425L129.953 5.75H134.503Z" fill="white"/>
</svg>
